<svg width="45" height="45" viewBox="0 0 45 45" fill="none" xmlns="http://www.w3.org/2000/svg">
<path d="M41.1884 9.98093L40.5152 10.1944L36.9299 10.5138L35.9172 12.1309L35.1824 11.8975L32.3291 9.32489L31.9151 7.98704L31.3608 6.56038L29.5674 4.9518L27.4518 4.53784L27.4031 5.50614L29.4758 7.52867L30.4899 8.72329L29.3497 9.31916L28.4215 9.04558L27.0307 8.46546L27.0779 7.3439L25.2531 6.59332L24.6472 9.23035L22.808 9.64718L22.9899 11.1182L25.3863 11.5795L25.8003 9.22892L27.7784 9.52113L28.698 10.0597H30.1733L31.1832 12.0822L33.8603 14.7981L33.6641 15.8537L31.5055 15.5787L27.7755 17.4623L25.0898 20.6838L24.7403 22.1104H23.7763L21.9801 21.2825L20.2354 22.1104L20.6694 23.951L21.4286 23.0758L22.7636 23.0343L22.6705 24.6873L23.7763 25.011L24.8807 26.2515L26.684 25.7444L28.7438 26.0695L31.1359 26.7127L32.3305 26.8531L34.3559 29.1521L38.2649 31.451L35.7367 36.2811L33.0682 37.5215L32.0555 40.2817L28.1938 42.86L27.7827 44.3469C37.6547 41.9691 44.9986 33.1012 44.9986 22.4986C44.9957 17.8677 43.592 13.5576 41.1884 9.98093Z" fill="#2C2C2C"/>
<path d="M25.0883 34.2585L23.4497 31.2204L24.9537 28.0864L23.4497 27.6366L21.7609 25.9407L18.0195 25.1013L16.7776 22.5029V24.0456H16.2304L13.0061 19.6739V16.0829L10.6427 12.2398L6.88981 12.9088H4.36164L3.08968 12.0751L4.71257 10.7888L3.09397 11.1627C1.14306 14.4944 0.0057373 18.3604 0.0057373 22.5015C0.0057373 34.9246 10.0769 45 22.5014 45C23.4583 45 24.3965 44.9155 25.3247 44.8038L25.0898 42.078C25.0898 42.078 26.1225 38.03 26.1225 37.8925C26.1211 37.7536 25.0883 34.2585 25.0883 34.2585Z" fill="#2C2C2C"/>
<path d="M8.36516 7.25506L12.3615 6.69786L14.2036 5.68803L16.2763 6.28533L19.5879 6.10199L20.7224 4.31866L22.3768 4.59081L26.3947 4.21409L27.5019 2.9937L29.0632 1.95092L31.272 2.28323L32.077 2.16148C29.1678 0.792112 25.9306 0 22.5 0C15.5171 0 9.2733 3.18277 5.15088 8.18039H5.16234L8.36516 7.25506ZM23.4511 2.2374L25.7487 0.972594L27.224 1.82487L25.0883 3.45063L23.0486 3.65546L22.1304 3.05959L23.4511 2.2374ZM16.6458 2.42217L17.66 2.84473L18.9878 2.42217L19.7111 3.67552L16.6458 4.48052L15.1719 3.61822C15.1705 3.61822 16.6129 2.69003 16.6458 2.42217Z" fill="#2C2C2C"/>
</svg>
