<svg width="55" height="53" viewBox="0 0 55 53" fill="none" xmlns="http://www.w3.org/2000/svg">
<path d="M27.5005 0.807983C20.4625 0.807983 13.713 3.5258 8.73732 8.36254C3.76106 13.1993 0.964844 19.7596 0.964844 26.5997C0.964844 33.4398 3.76106 40.0007 8.73732 44.8368C13.7136 49.6736 20.4631 52.3914 27.5005 52.3914C34.5379 52.3914 41.2881 49.6736 46.2638 44.8368C51.24 40.0001 54.0362 33.4398 54.0362 26.5997C54.0362 19.7596 51.24 13.1987 46.2638 8.36254C41.2875 3.5258 34.5379 0.807983 27.5005 0.807983ZM27.5005 47.4C21.8251 47.4 16.382 45.2086 12.3683 41.308C8.35518 37.4068 6.10054 32.1163 6.10054 26.6C6.10054 21.0837 8.35518 15.7932 12.3683 11.892C16.382 7.99141 21.8251 5.79998 27.5005 5.79998C33.176 5.79998 38.6191 7.99141 42.6328 11.892C46.6459 15.7932 48.9005 21.0837 48.9005 26.6C48.9005 32.1163 46.6459 37.4068 42.6328 41.308C38.6191 45.2086 33.176 47.4 27.5005 47.4Z" fill="#ECECEC"/>
<path d="M29.2117 14.7529L18.8371 24.8366C18.3564 25.3043 18.0859 25.9387 18.0859 26.6003C18.0859 27.2618 18.3564 27.8962 18.8371 28.3639L29.2117 38.4476L32.8414 34.9203L24.2814 26.6003L32.8414 18.2803L29.2117 14.7529Z" fill="#ECECEC"/>
</svg>
