<svg width="61" height="58" viewBox="0 0 61 58" fill="none" xmlns="http://www.w3.org/2000/svg">
<path d="M27.7512 5.10677C16.2572 6.30835 7.01202 15.2001 5.76267 26.0143C4.51332 37.3092 11.2598 47.4025 21.5045 51.2476C22.2541 51.4879 23.0037 51.0073 23.0037 50.046V46.201C23.0037 46.201 22.0042 46.4413 20.7549 46.4413C17.2567 46.4413 15.7575 43.5575 15.5076 41.8752C15.2577 40.914 14.758 40.193 14.0084 39.4721C13.2588 39.2318 13.0089 39.2318 13.0089 38.9915C13.0089 38.5108 13.7585 38.5108 14.0084 38.5108C15.5076 38.5108 16.7569 40.193 17.2567 40.914C18.506 42.8365 20.0053 43.3172 20.7549 43.3172C21.7543 43.3172 22.504 43.0768 23.0037 42.8365C23.2536 41.1543 24.0032 39.4721 25.5024 38.5108C19.7554 37.3092 15.5076 34.1851 15.5076 28.8981C15.5076 26.2547 16.7569 23.6112 18.506 21.6886C18.2562 21.208 18.0063 20.0064 18.0063 18.3242C18.0063 17.3629 18.0063 15.921 18.7559 14.4791C18.7559 14.4791 22.2541 14.4791 25.7523 17.6032C27.0016 17.1226 28.7507 16.8823 30.4998 16.8823C32.2489 16.8823 33.998 17.1226 35.4972 17.6032C38.7455 14.4791 42.4935 14.4791 42.4935 14.4791C42.9933 15.921 42.9933 17.3629 42.9933 18.3242C42.9933 20.2467 42.7434 21.208 42.4935 21.6886C44.2426 23.6112 45.492 26.0143 45.492 28.8981C45.492 34.1851 41.2442 37.3092 35.4972 38.5108C36.9964 39.7124 37.9959 41.8752 37.9959 44.0381V50.2863C37.9959 51.0073 38.7455 51.7282 39.745 51.4879C48.9902 47.8832 55.4868 39.2318 55.4868 29.1385C55.4868 14.7194 42.7434 3.42455 27.7512 5.10677Z" fill="white"/>
</svg>
