<svg width="33" height="33" viewBox="0 0 33 33" fill="none" xmlns="http://www.w3.org/2000/svg">
<g clip-path="url(#clip0_213_406)">
<path d="M16.5 0.000732422C7.38826 0.000732422 0 7.38754 0 16.5C0 25.6125 7.38753 32.9993 16.5 32.9993C25.6132 32.9993 33 25.6125 33 16.5C33 7.38754 25.6132 0.000732422 16.5 0.000732422ZM16.5 4.93421C19.515 4.93421 21.9582 7.37811 21.9582 10.3917C21.9582 13.406 19.515 15.8492 16.5 15.8492C13.4864 15.8492 11.0432 13.406 11.0432 10.3917C11.0432 7.37811 13.4864 4.93421 16.5 4.93421ZM16.4964 28.6855C13.4893 28.6855 10.7352 27.5904 8.61093 25.7777C8.09345 25.3363 7.79485 24.6891 7.79485 24.01C7.79485 20.9537 10.2685 18.5076 13.3255 18.5076H19.6759C22.7337 18.5076 25.1979 20.9537 25.1979 24.01C25.1979 24.6898 24.9007 25.3356 24.3825 25.777C22.259 27.5904 19.5042 28.6855 16.4964 28.6855Z" fill="#ECECEC"/>
</g>
<defs>
<clipPath id="clip0_213_406">
<rect width="33" height="33" fill="white"/>
</clipPath>
</defs>
</svg>
