<svg width="33" height="33" viewBox="0 0 33 33" fill="none" xmlns="http://www.w3.org/2000/svg">
<path d="M16.5 33C22.8411 33 28 27.8411 28 21.5C28 18.5229 26.8627 15.8064 25 13.7621V8.5C25 3.8131 21.1869 0 16.5 0C11.8131 0 8.0001 3.8131 8.0001 8.5V13.7619C6.1373 15.8064 5 18.5229 5 21.5C5 27.8411 10.1589 33 16.5 33ZM18 21.9986V24C18 24.8284 17.3284 25.5 16.5 25.5C15.6716 25.5 15 24.8284 15 24V21.9986C14.3932 21.5421 14 20.8162 14 20C14 18.6215 15.1215 17.5 16.5 17.5C17.8785 17.5 19 18.6215 19 20C19 20.8162 18.6068 21.5421 18 21.9986ZM11.0001 8.5C11.0001 5.4673 13.4674 3 16.5 3C19.5327 3 22 5.4673 22 8.5V11.4029C20.3652 10.5088 18.491 10 16.5 10C14.5091 10 12.6349 10.5088 11.0001 11.4028V8.5Z" fill="#ECECEC"/>
</svg>
