<svg width="153" height="62" viewBox="0 0 153 62" fill="none" xmlns="http://www.w3.org/2000/svg">
<path d="M4.03118 39.5L19 2.65672L33.9688 39.5H4.03118Z" stroke="white" stroke-width="2"/>
<path d="M41.9688 22.5L27 59.3433L12.0312 22.5L41.9688 22.5Z" stroke="white" stroke-width="2"/>
<path d="M65.44 39.32C63.8827 39.32 62.4853 38.936 61.248 38.168C60.032 37.4 59.0613 36.3547 58.336 35.032C57.632 33.7093 57.28 32.2267 57.28 30.584C57.28 28.9413 57.632 27.4587 58.336 26.136C59.0613 24.8133 60.032 23.768 61.248 23C62.4853 22.232 63.8827 21.848 65.44 21.848C66.9333 21.848 68.288 22.1573 69.504 22.776C70.7413 23.3733 71.68 24.1947 72.32 25.24L70.496 27.48C70.1547 26.9893 69.7173 26.5413 69.184 26.136C68.6507 25.7307 68.0853 25.4107 67.488 25.176C66.8907 24.9413 66.3147 24.824 65.76 24.824C64.736 24.824 63.8187 25.08 63.008 25.592C62.2187 26.0827 61.5893 26.7653 61.12 27.64C60.6507 28.5147 60.416 29.496 60.416 30.584C60.416 31.672 60.6613 32.6533 61.152 33.528C61.6427 34.3813 62.2933 35.064 63.104 35.576C63.9147 36.088 64.8107 36.344 65.792 36.344C66.368 36.344 66.9227 36.248 67.456 36.056C68.0107 35.864 68.544 35.576 69.056 35.192C69.568 34.808 70.048 34.3387 70.496 33.784L72.32 36.024C71.6373 36.984 70.656 37.7733 69.376 38.392C68.1173 39.0107 66.8053 39.32 65.44 39.32ZM82.981 39.32C81.3383 39.32 79.8663 38.9467 78.565 38.2C77.285 37.432 76.2717 36.3973 75.525 35.096C74.7783 33.7733 74.405 32.2693 74.405 30.584C74.405 28.8987 74.7783 27.4053 75.525 26.104C76.2717 24.7813 77.285 23.7467 78.565 23C79.8663 22.232 81.3383 21.848 82.981 21.848C84.6023 21.848 86.053 22.232 87.333 23C88.6343 23.7467 89.6583 24.7813 90.405 26.104C91.1517 27.4053 91.525 28.8987 91.525 30.584C91.525 32.2693 91.1517 33.7733 90.405 35.096C89.6583 36.3973 88.6343 37.432 87.333 38.2C86.053 38.9467 84.6023 39.32 82.981 39.32ZM82.981 36.312C83.9837 36.312 84.8797 36.0667 85.669 35.576C86.4583 35.064 87.077 34.3813 87.525 33.528C87.973 32.6533 88.1863 31.672 88.165 30.584C88.1863 29.4747 87.973 28.4933 87.525 27.64C87.077 26.7653 86.4583 26.0827 85.669 25.592C84.8797 25.1013 83.9837 24.856 82.981 24.856C81.9783 24.856 81.0717 25.112 80.261 25.624C79.4717 26.1147 78.853 26.7973 78.405 27.672C77.957 28.5253 77.7437 29.496 77.765 30.584C77.7437 31.672 77.957 32.6533 78.405 33.528C78.853 34.3813 79.4717 35.064 80.261 35.576C81.0717 36.0667 81.9783 36.312 82.981 36.312ZM102.125 39.32C100.589 39.32 99.2125 38.9467 97.9965 38.2C96.8018 37.432 95.8525 36.3973 95.1485 35.096C94.4445 33.7733 94.0925 32.2693 94.0925 30.584C94.0925 28.8987 94.4338 27.4053 95.1165 26.104C95.8205 24.7813 96.7698 23.7467 97.9645 23C99.1592 22.232 100.514 21.848 102.029 21.848C102.861 21.848 103.661 21.9867 104.429 22.264C105.218 22.52 105.922 22.8827 106.541 23.352C107.159 23.8 107.639 24.3013 107.981 24.856C108.343 25.3893 108.525 25.9333 108.525 26.488L107.565 26.552V15.32H110.861V39H107.565V35H108.205C108.205 35.512 108.034 36.024 107.693 36.536C107.351 37.0267 106.893 37.4853 106.317 37.912C105.762 38.3387 105.111 38.68 104.365 38.936C103.639 39.192 102.893 39.32 102.125 39.32ZM102.573 36.472C103.575 36.472 104.461 36.216 105.229 35.704C105.997 35.192 106.594 34.4987 107.021 33.624C107.469 32.728 107.693 31.7147 107.693 30.584C107.693 29.4533 107.469 28.4507 107.021 27.576C106.594 26.68 105.997 25.976 105.229 25.464C104.461 24.952 103.575 24.696 102.573 24.696C101.57 24.696 100.685 24.952 99.9165 25.464C99.1485 25.976 98.5405 26.68 98.0925 27.576C97.6658 28.4507 97.4525 29.4533 97.4525 30.584C97.4525 31.7147 97.6658 32.728 98.0925 33.624C98.5405 34.4987 99.1485 35.192 99.9165 35.704C100.685 36.216 101.57 36.472 102.573 36.472ZM123.238 39.32C121.51 39.32 119.974 38.9573 118.63 38.232C117.307 37.4853 116.262 36.472 115.494 35.192C114.747 33.912 114.374 32.44 114.374 30.776C114.374 29.4533 114.587 28.248 115.014 27.16C115.44 26.072 116.027 25.1333 116.774 24.344C117.542 23.5333 118.448 22.9147 119.494 22.488C120.56 22.04 121.712 21.816 122.95 21.816C124.038 21.816 125.051 22.0293 125.99 22.456C126.928 22.8613 127.739 23.4267 128.422 24.152C129.126 24.8773 129.659 25.7413 130.022 26.744C130.406 27.7253 130.587 28.8027 130.566 29.976L130.534 31.384H116.806L116.07 28.76H127.686L127.206 29.304V28.536C127.142 27.832 126.907 27.2027 126.502 26.648C126.096 26.0933 125.584 25.656 124.966 25.336C124.347 25.016 123.675 24.856 122.95 24.856C121.798 24.856 120.827 25.08 120.038 25.528C119.248 25.9547 118.651 26.5947 118.246 27.448C117.84 28.28 117.638 29.3147 117.638 30.552C117.638 31.7253 117.883 32.7493 118.374 33.624C118.864 34.4773 119.558 35.1387 120.454 35.608C121.35 36.0773 122.384 36.312 123.558 36.312C124.39 36.312 125.158 36.1733 125.862 35.896C126.587 35.6187 127.366 35.1173 128.198 34.392L129.862 36.728C129.35 37.24 128.72 37.688 127.974 38.072C127.248 38.456 126.47 38.7653 125.638 39C124.827 39.2133 124.027 39.32 123.238 39.32ZM141.156 39.32C139.62 39.32 138.244 38.9467 137.028 38.2C135.833 37.432 134.884 36.3973 134.18 35.096C133.476 33.7733 133.124 32.2693 133.124 30.584C133.124 28.8987 133.465 27.4053 134.148 26.104C134.852 24.7813 135.801 23.7467 136.996 23C138.19 22.232 139.545 21.848 141.06 21.848C141.892 21.848 142.692 21.9867 143.46 22.264C144.249 22.52 144.953 22.8827 145.572 23.352C146.19 23.8 146.67 24.3013 147.012 24.856C147.374 25.3893 147.556 25.9333 147.556 26.488L146.596 26.552V15.32H149.892V39H146.596V35H147.236C147.236 35.512 147.065 36.024 146.724 36.536C146.382 37.0267 145.924 37.4853 145.348 37.912C144.793 38.3387 144.142 38.68 143.396 38.936C142.67 39.192 141.924 39.32 141.156 39.32ZM141.604 36.472C142.606 36.472 143.492 36.216 144.26 35.704C145.028 35.192 145.625 34.4987 146.052 33.624C146.5 32.728 146.724 31.7147 146.724 30.584C146.724 29.4533 146.5 28.4507 146.052 27.576C145.625 26.68 145.028 25.976 144.26 25.464C143.492 24.952 142.606 24.696 141.604 24.696C140.601 24.696 139.716 24.952 138.948 25.464C138.18 25.976 137.572 26.68 137.124 27.576C136.697 28.4507 136.484 29.4533 136.484 30.584C136.484 31.7147 136.697 32.728 137.124 33.624C137.572 34.4987 138.18 35.192 138.948 35.704C139.716 36.216 140.601 36.472 141.604 36.472Z" fill="white"/>
</svg>
