<svg width="369" height="125" viewBox="0 0 369 125" fill="none" xmlns="http://www.w3.org/2000/svg">
<path d="M97.5001 101C92.6334 101 88.2667 99.8 84.4001 97.4C80.6001 95 77.5667 91.7333 75.3001 87.6C73.1001 83.4667 72.0001 78.8333 72.0001 73.7C72.0001 68.5667 73.1001 63.9333 75.3001 59.8C77.5667 55.6667 80.6001 52.4 84.4001 50C88.2667 47.6 92.6334 46.4 97.5001 46.4C102.167 46.4 106.4 47.3667 110.2 49.3C114.067 51.1667 117 53.7333 119 57L113.3 64C112.233 62.4667 110.867 61.0667 109.2 59.8C107.533 58.5333 105.767 57.5333 103.9 56.8C102.033 56.0667 100.233 55.7 98.5001 55.7C95.3001 55.7 92.4334 56.5 89.9001 58.1C87.4334 59.6333 85.4667 61.7667 84.0001 64.5C82.5334 67.2333 81.8001 70.3 81.8001 73.7C81.8001 77.1 82.5667 80.1667 84.1001 82.9C85.6334 85.5667 87.6667 87.7 90.2001 89.3C92.7334 90.9 95.5334 91.7 98.6001 91.7C100.4 91.7 102.133 91.4 103.8 90.8C105.533 90.2 107.2 89.3 108.8 88.1C110.4 86.9 111.9 85.4333 113.3 83.7L119 90.7C116.867 93.7 113.8 96.1667 109.8 98.1C105.867 100.033 101.767 101 97.5001 101ZM152.316 101C147.182 101 142.582 99.8333 138.516 97.5C134.516 95.1 131.349 91.8667 129.016 87.8C126.682 83.6667 125.516 78.9667 125.516 73.7C125.516 68.4333 126.682 63.7667 129.016 59.7C131.349 55.5667 134.516 52.3333 138.516 50C142.582 47.6 147.182 46.4 152.316 46.4C157.382 46.4 161.916 47.6 165.916 50C169.982 52.3333 173.182 55.5667 175.516 59.7C177.849 63.7667 179.016 68.4333 179.016 73.7C179.016 78.9667 177.849 83.6667 175.516 87.8C173.182 91.8667 169.982 95.1 165.916 97.5C161.916 99.8333 157.382 101 152.316 101ZM152.316 91.6C155.449 91.6 158.249 90.8333 160.716 89.3C163.182 87.7 165.116 85.5667 166.516 82.9C167.916 80.1667 168.582 77.1 168.516 73.7C168.582 70.2333 167.916 67.1667 166.516 64.5C165.116 61.7667 163.182 59.6333 160.716 58.1C158.249 56.5667 155.449 55.8 152.316 55.8C149.182 55.8 146.349 56.6 143.816 58.2C141.349 59.7333 139.416 61.8667 138.016 64.6C136.616 67.2667 135.949 70.3 136.016 73.7C135.949 77.1 136.616 80.1667 138.016 82.9C139.416 85.5667 141.349 87.7 143.816 89.3C146.349 90.8333 149.182 91.6 152.316 91.6ZM212.139 101C207.339 101 203.039 99.8333 199.239 97.5C195.506 95.1 192.539 91.8667 190.339 87.8C188.139 83.6667 187.039 78.9667 187.039 73.7C187.039 68.4333 188.106 63.7667 190.239 59.7C192.439 55.5667 195.406 52.3333 199.139 50C202.872 47.6 207.106 46.4 211.839 46.4C214.439 46.4 216.939 46.8333 219.339 47.7C221.806 48.5 224.006 49.6333 225.939 51.1C227.872 52.5 229.372 54.0667 230.439 55.8C231.572 57.4667 232.139 59.1667 232.139 60.9L229.139 61.1V26H239.439V100H229.139V87.5H231.139C231.139 89.1 230.606 90.7 229.539 92.3C228.472 93.8333 227.039 95.2667 225.239 96.6C223.506 97.9333 221.472 99 219.139 99.8C216.872 100.6 214.539 101 212.139 101ZM213.539 92.1C216.672 92.1 219.439 91.3 221.839 89.7C224.239 88.1 226.106 85.9333 227.439 83.2C228.839 80.4 229.539 77.2333 229.539 73.7C229.539 70.1667 228.839 67.0333 227.439 64.3C226.106 61.5 224.239 59.3 221.839 57.7C219.439 56.1 216.672 55.3 213.539 55.3C210.406 55.3 207.639 56.1 205.239 57.7C202.839 59.3 200.939 61.5 199.539 64.3C198.206 67.0333 197.539 70.1667 197.539 73.7C197.539 77.2333 198.206 80.4 199.539 83.2C200.939 85.9333 202.839 88.1 205.239 89.7C207.639 91.3 210.406 92.1 213.539 92.1ZM278.118 101C272.718 101 267.918 99.8667 263.718 97.6C259.585 95.2667 256.318 92.1 253.918 88.1C251.585 84.1 250.418 79.5 250.418 74.3C250.418 70.1667 251.085 66.4 252.418 63C253.751 59.6 255.585 56.6667 257.918 54.2C260.318 51.6667 263.151 49.7333 266.418 48.4C269.751 47 273.351 46.3 277.218 46.3C280.618 46.3 283.785 46.9667 286.718 48.3C289.651 49.5667 292.185 51.3333 294.318 53.6C296.518 55.8667 298.185 58.5667 299.318 61.7C300.518 64.7667 301.085 68.1333 301.018 71.8L300.918 76.2H258.018L255.718 68H292.018L290.518 69.7V67.3C290.318 65.1 289.585 63.1333 288.318 61.4C287.051 59.6667 285.451 58.3 283.518 57.3C281.585 56.3 279.485 55.8 277.218 55.8C273.618 55.8 270.585 56.5 268.118 57.9C265.651 59.2333 263.785 61.2333 262.518 63.9C261.251 66.5 260.618 69.7333 260.618 73.6C260.618 77.2667 261.385 80.4667 262.918 83.2C264.451 85.8667 266.618 87.9333 269.418 89.4C272.218 90.8667 275.451 91.6 279.118 91.6C281.718 91.6 284.118 91.1667 286.318 90.3C288.585 89.4333 291.018 87.8667 293.618 85.6L298.818 92.9C297.218 94.5 295.251 95.9 292.918 97.1C290.651 98.3 288.218 99.2667 285.618 100C283.085 100.667 280.585 101 278.118 101ZM334.112 101C329.312 101 325.012 99.8333 321.212 97.5C317.478 95.1 314.512 91.8667 312.312 87.8C310.112 83.6667 309.012 78.9667 309.012 73.7C309.012 68.4333 310.078 63.7667 312.212 59.7C314.412 55.5667 317.378 52.3333 321.112 50C324.845 47.6 329.078 46.4 333.812 46.4C336.412 46.4 338.912 46.8333 341.312 47.7C343.778 48.5 345.978 49.6333 347.912 51.1C349.845 52.5 351.345 54.0667 352.412 55.8C353.545 57.4667 354.112 59.1667 354.112 60.9L351.112 61.1V26H361.412V100H351.112V87.5H353.112C353.112 89.1 352.578 90.7 351.512 92.3C350.445 93.8333 349.012 95.2667 347.212 96.6C345.478 97.9333 343.445 99 341.112 99.8C338.845 100.6 336.512 101 334.112 101ZM335.512 92.1C338.645 92.1 341.412 91.3 343.812 89.7C346.212 88.1 348.078 85.9333 349.412 83.2C350.812 80.4 351.512 77.2333 351.512 73.7C351.512 70.1667 350.812 67.0333 349.412 64.3C348.078 61.5 346.212 59.3 343.812 57.7C341.412 56.1 338.645 55.3 335.512 55.3C332.378 55.3 329.612 56.1 327.212 57.7C324.812 59.3 322.912 61.5 321.512 64.3C320.178 67.0333 319.512 70.1667 319.512 73.7C319.512 77.2333 320.178 80.4 321.512 83.2C322.912 85.9333 324.812 88.1 327.212 89.7C329.612 91.3 332.378 92.1 335.512 92.1Z" fill="white"/>
<path d="M4.02963 77.5L18.9902 40.6579L33.9507 77.5H4.02963Z" stroke="white" stroke-width="2"/>
<path d="M41.2039 61L26.9861 96.0131L12.7682 61L41.2039 61Z" stroke="white" stroke-width="3"/>
</svg>
