<svg width="37" height="37" viewBox="0 0 37 37" fill="none" xmlns="http://www.w3.org/2000/svg">
<path d="M30.5 0.5C28.9087 0.5 27.3826 1.13214 26.2574 2.25736C25.1321 3.38258 24.5 4.9087 24.5 6.5C24.5027 6.92175 24.5498 7.34204 24.6406 7.75391L11.0176 14.5654C10.4557 13.9186 9.76181 13.3995 8.98257 13.0433C8.20333 12.687 7.35682 12.5017 6.5 12.5C4.9087 12.5 3.38258 13.1321 2.25736 14.2574C1.13214 15.3826 0.5 16.9087 0.5 18.5C0.5 20.0913 1.13214 21.6174 2.25736 22.7426C3.38258 23.8679 4.9087 24.5 6.5 24.5C7.35709 24.499 8.20403 24.3145 8.98379 23.9587C9.76355 23.6029 10.458 23.0842 11.0205 22.4375L24.6348 29.2461C24.5459 29.6582 24.5007 30.0785 24.5 30.5C24.5 32.0913 25.1321 33.6174 26.2574 34.7426C27.3826 35.8679 28.9087 36.5 30.5 36.5C32.0913 36.5 33.6174 35.8679 34.7426 34.7426C35.8679 33.6174 36.5 32.0913 36.5 30.5C36.5 28.9087 35.8679 27.3826 34.7426 26.2574C33.6174 25.1321 32.0913 24.5 30.5 24.5C29.6429 24.501 28.796 24.6855 28.0162 25.0413C27.2364 25.3971 26.542 25.9158 25.9795 26.5625L12.3652 19.7539C12.4541 19.3418 12.4993 18.9215 12.5 18.5C12.4971 18.0792 12.45 17.6599 12.3594 17.249L25.9824 10.4375C26.5446 11.0838 27.2386 11.6023 28.0178 11.9581C28.797 12.3138 29.6434 12.4986 30.5 12.5C32.0913 12.5 33.6174 11.8679 34.7426 10.7426C35.8679 9.61742 36.5 8.0913 36.5 6.5C36.5 4.9087 35.8679 3.38258 34.7426 2.25736C33.6174 1.13214 32.0913 0.5 30.5 0.5Z" fill="#2C2C2C"/>
</svg>
